<svg width="28" height="28" viewBox="0 0 28 28" fill="none" xmlns="http://www.w3.org/2000/svg">
<rect width="28" height="28" rx="4" fill="#06425B"/>
<g clip-path="url(#clip0_1253_1899)">
<path fill-rule="evenodd" clip-rule="evenodd" d="M10.0956 8.2183L16.0057 8.21464V10.5179L10.0965 10.5215C9.82941 10.5217 9.56925 10.4363 9.3542 10.2778L8.39566 9.57136C8.33172 9.52424 8.29398 9.44954 8.29398 9.37011C8.29398 9.29068 8.33172 9.21598 8.39566 9.16886L9.35475 8.46204C9.56938 8.30387 9.82895 8.21847 10.0956 8.2183ZM18.4392 10.5163L17.2557 10.5171V8.21387L18.443 8.21313C19.0769 8.22311 19.5615 8.78746 19.5615 9.36474C19.5615 9.94202 19.0769 10.5063 18.443 10.5163L18.4392 10.5163ZM12.508 12.8256C12.8433 12.9601 13.1289 13.1071 13.3748 13.253V21.6409C13.0546 21.4075 12.6767 21.1588 12.1357 20.9418C11.4005 20.647 10.3404 20.4037 8.72324 20.4037C8.59063 20.4037 8.46345 20.351 8.36968 20.2573C8.27591 20.1635 8.22324 20.0363 8.22324 19.9037V12.7156C8.22324 12.4395 8.44709 12.2156 8.72324 12.2156C10.4427 12.2156 11.633 12.4747 12.508 12.8256ZM15.8643 20.9418C15.3231 21.1589 14.9452 21.4076 14.6248 21.6411V13.2531C14.8709 13.1072 15.1566 12.9601 15.492 12.8256C16.367 12.4747 17.5573 12.2156 19.2768 12.2156C19.5529 12.2156 19.7768 12.4395 19.7768 12.7156V19.9037C19.7768 20.0363 19.7241 20.1635 19.6303 20.2573C19.5365 20.351 19.4094 20.4037 19.2768 20.4037C17.6596 20.4037 16.5995 20.647 15.8643 20.9418Z" fill="#C3E4F2"/>
</g>
<defs>
<clipPath id="clip0_1253_1899">
<rect width="14" height="14" fill="white" transform="translate(7 7.64111)"/>
</clipPath>
</defs>
</svg>
