<svg width="28" height="28" viewBox="0 0 28 28" fill="none" xmlns="http://www.w3.org/2000/svg">
<rect width="28" height="28" rx="4" fill="#06425B"/>
<path fill-rule="evenodd" clip-rule="evenodd" d="M9.19822 9.02196C9.06651 7.96828 9.8881 7.0376 10.95 7.0376H16.7727C17.8346 7.0376 18.6562 7.96828 18.5245 9.02196L17.7629 15.1143C17.6525 15.9978 16.9015 16.6608 16.0112 16.6608H14.4978V17.9651H15.2109C15.5143 17.9651 15.7878 18.1478 15.9038 18.4281C16.0199 18.7083 15.9558 19.0309 15.7413 19.2454L14.2803 20.7064C14.2729 20.7139 14.2654 20.7211 14.2577 20.7283C14.1948 20.7866 14.1243 20.8322 14.0496 20.8651C13.9572 20.9057 13.8552 20.9282 13.7478 20.9282C13.6372 20.9282 13.5322 20.9043 13.4376 20.8613C13.3726 20.8318 13.311 20.7926 13.2549 20.7435C13.2407 20.7312 13.227 20.7183 13.2138 20.7049L11.7543 19.2454C11.5398 19.0309 11.4757 18.7083 11.5917 18.4281C11.7078 18.1478 11.9813 17.9651 12.2847 17.9651H12.9978V16.6608H11.7115C10.8212 16.6608 10.0702 15.9978 9.95977 15.1143L9.19822 9.02196ZM12.351 12.2198C12.0092 12.2908 11.6122 12.3303 11.1207 12.3088L10.6866 8.83591C10.6668 8.67751 10.7903 8.5376 10.95 8.5376H16.7727C16.9323 8.5376 17.0559 8.67751 17.0361 8.83591L16.7472 11.1468C16.1519 11.1127 15.6518 11.1536 15.2068 11.2426C14.6004 11.3639 14.1158 11.5716 13.6775 11.7595L13.6642 11.7652C13.2269 11.9526 12.8346 12.1193 12.351 12.2198Z" fill="#C3E4F2"/>
</svg>
